# xmcd CD database file
#
# Track frame offsets:
#	150
#	20880
#	42047
#
# Disc length: 836 seconds
#
# Revision: 0
# Processed by: cddbd v1.5PL3 Copyright (c) Steve Scherf et al.
# Submitted via: CDex 1.50
#
DISCID=1e034203
DTITLE=渡辺美里 - 世界で一番 遠い場所/Promise
DYEAR=1995
DGENRE=JPop
TTITLE0=世界で一番 遠い場所
TTITLE1=Promise
TTITLE2=世界で一番 遠い場所[Instrumental Version]
EXTD=YEAR: 1995
EXTT0=
EXTT1=
EXTT2=
PLAYORDER=
